<svg xmlns="http://www.w3.org/2000/svg" xmlns:xlink="http://www.w3.org/1999/xlink" viewBox="0,0,256,256" width="100px" height="100px"><g fill="none" fill-rule="nonzero" stroke="none" stroke-width="1" stroke-linecap="butt" stroke-linejoin="miter" stroke-miterlimit="10" stroke-dasharray="" stroke-dashoffset="0" font-family="none" font-weight="none" font-size="none" text-anchor="none" style="mix-blend-mode: normal"><g transform="scale(2.56,2.56)"><path d="M78,13c-0.55228,0 -1,0.44772 -1,1c0,0.55228 0.44772,1 1,1c0.55228,0 1,-0.44772 1,-1c0,-0.55228 -0.44772,-1 -1,-1z" fill="#f119e3"></path><path d="M50,12c-20.98682,0 -38,17.01318 -38,38c0,20.98682 17.01318,38 38,38c20.98682,0 38,-17.01318 38,-38c0,-20.98682 -17.01318,-38 -38,-38z" fill="#ee87ff"></path><path d="M84,12c-2.20914,0 -4,1.79086 -4,4c0,2.20914 1.79086,4 4,4c2.20914,0 4,-1.79086 4,-4c0,-2.20914 -1.79086,-4 -4,-4z" fill="#f119e3"></path><path d="M14,24c-1.10457,0 -2,0.89543 -2,2c0,1.10457 0.89543,2 2,2c1.10457,0 2,-0.89543 2,-2c0,-1.10457 -0.89543,-2 -2,-2z" fill="#b63eee"></path><path d="M78,75c-1.10457,0 -2,0.89543 -2,2c0,1.10457 0.89543,2 2,2c1.10457,0 2,-0.89543 2,-2c0,-1.10457 -0.89543,-2 -2,-2zM17,74c-2.20914,0 -4,1.79086 -4,4c0,2.20914 1.79086,4 4,4c2.20914,0 4,-1.79086 4,-4c0,-2.20914 -1.79086,-4 -4,-4z" fill="#ed59fb"></path><path d="M24,81c-1.10457,0 -2,0.89543 -2,2c0,1.10457 0.89543,2 2,2c1.10457,0 2,-0.89543 2,-2c0,-1.10457 -0.89543,-2 -2,-2z" fill="#b63eee"></path><path d="M66.483,76.034c-1.37132,0 -2.483,1.11168 -2.483,2.483c0,1.37132 1.11168,2.483 2.483,2.483c1.37132,0 2.483,-1.11168 2.483,-2.483c0,-1.37132 -1.11168,-2.483 -2.483,-2.483zM16,47c-0.55228,0 -1,0.44772 -1,1c0,0.55228 0.44772,1 1,1c0.55228,0 1,-0.44772 1,-1c0,-0.55228 -0.44772,-1 -1,-1z" fill="#ffffff"></path><path d="M86,30c-0.55228,0 -1,0.44772 -1,1c0,0.55228 0.44772,1 1,1c0.55228,0 1,-0.44772 1,-1c0,-0.55228 -0.44772,-1 -1,-1z" fill="#f119e3"></path><path d="M80,64c-1.10457,0 -2,0.89543 -2,2c0,1.10457 0.89543,2 2,2c1.10457,0 2,-0.89543 2,-2c0,-1.10457 -0.89543,-2 -2,-2z" fill="#ffffff"></path><g><path d="M28.7,29.298c0,-1.983 1.646,-3.598 3.668,-3.598h25.715c0.671,0 1.217,0.546 1.217,1.217v27.881l-26.153,-0.081l-4.446,2.57v-27.989z" fill="#9548d8"></path><path d="M58.083,26.4c0.285,0 0.517,0.232 0.517,0.517v27.179l-25.262,-0.079l-0.378,-0.001l-0.327,0.189l-3.233,1.868v-26.775c0,-1.598 1.332,-2.898 2.968,-2.898h25.715M58.083,25h-25.715c-2.412,0 -4.368,1.924 -4.368,4.298v29.202l5.333,-3.083l26.667,0.083v-28.583c0,-1.059 -0.858,-1.917 -1.917,-1.917z" fill="#472b29"></path><path d="M29.437,57.25h3.438v-30.875h-0.5c-1.622,0 -2.938,1.315 -2.938,2.938z" fill="#9d88d7"></path><path d="M32,61.3c-1.819,0 -3.3,-1.48 -3.3,-3.3c0,-1.82 1.48,-3.3 3.3,-3.3h26.771c-1.087,2.154 -1.079,4.365 0.023,6.6z" fill="#fdbcef"></path><path d="M57.716,55.4c-0.6,1.703 -0.591,3.456 0.027,5.2h-25.743c-1.434,0 -2.6,-1.167 -2.6,-2.6c0,-1.433 1.166,-2.6 2.6,-2.6h25.716M60,54h-28c-2.209,0 -4,1.791 -4,4c0,2.209 1.791,4 4,4h28c-1.713,-2.639 -1.844,-5.306 0,-8z" fill="#472b29"></path><g fill="#472b29"><path d="M32.5,33c-0.276,0 -0.5,-0.224 -0.5,-0.5v-3c0,-0.276 0.224,-0.5 0.5,-0.5c0.276,0 0.5,0.224 0.5,0.5v3c0,0.276 -0.224,0.5 -0.5,0.5z"></path></g><g fill="#472b29"><path d="M32.5,53c-0.276,0 -0.5,-0.224 -0.5,-0.5v-18c0,-0.276 0.224,-0.5 0.5,-0.5c0.276,0 0.5,0.224 0.5,0.5v18c0,0.276 -0.224,0.5 -0.5,0.5z"></path></g></g><g><path d="M42.7,39.298c0,-1.983 1.646,-3.598 3.668,-3.598h25.843c0.601,0 1.089,0.488 1.089,1.089v26.917c0,0.6 -0.488,1.088 -1.088,1.088l-25.065,-0.077l-4.446,2.57v-27.989z" fill="#5155ea"></path><path d="M72.211,36.4c0.214,0 0.389,0.175 0.389,0.389v26.917c0,0.214 -0.174,0.389 -0.39,0.389l-24.872,-0.078l-0.378,-0.001l-0.327,0.189l-3.233,1.868v-26.775c0,-1.598 1.332,-2.898 2.968,-2.898h25.843M72.211,35h-25.843c-2.412,0 -4.368,1.924 -4.368,4.298v29.202l5.333,-3.083l24.872,0.078c0.002,0 0.004,0 0.006,0c0.987,0 1.789,-0.801 1.789,-1.789v-26.917c0,-0.988 -0.801,-1.789 -1.789,-1.789z" fill="#472b29"></path></g><g fill="#7d8aef"><path d="M43.437,67.25h3.438v-30.875h-0.5c-1.622,0 -2.938,1.315 -2.938,2.938z"></path></g><g><path d="M46,71.3c-1.819,0 -3.3,-1.48 -3.3,-3.3c0,-1.82 1.48,-3.3 3.3,-3.3h26.772c-0.99,1.966 -1.07,3.988 -0.234,6.028c0.071,0.174 0.005,0.314 -0.041,0.382c-0.038,0.058 -0.148,0.189 -0.354,0.189h-26.143z" fill="#fdbcef"></path><path d="M71.709,65.4c-0.607,1.703 -0.598,3.444 0.03,5.2h-25.739c-1.434,0 -2.6,-1.167 -2.6,-2.6c0,-1.433 1.166,-2.6 2.6,-2.6h25.709M74,64h-28c-2.209,0 -4,1.791 -4,4c0,2.209 1.791,4 4,4h26.143c0.793,0 1.342,-0.803 1.042,-1.537c-0.875,-2.136 -0.672,-4.291 0.815,-6.463z" fill="#472b29"></path></g><g fill="#472b29"><path d="M46.5,43c-0.276,0 -0.5,-0.224 -0.5,-0.5v-3c0,-0.276 0.224,-0.5 0.5,-0.5c0.276,0 0.5,0.224 0.5,0.5v3c0,0.276 -0.224,0.5 -0.5,0.5z"></path></g><g fill="#472b29"><path d="M46.5,63c-0.276,0 -0.5,-0.224 -0.5,-0.5v-14c0,-0.276 0.224,-0.5 0.5,-0.5c0.276,0 0.5,0.224 0.5,0.5v14c0,0.276 -0.224,0.5 -0.5,0.5z"></path></g><g fill="#472b29"><path d="M46.5,46.719c-0.276,0 -0.5,-0.224 -0.5,-0.5v-1.719c0,-0.276 0.224,-0.5 0.5,-0.5c0.276,0 0.5,0.224 0.5,0.5v1.719c0,0.276 -0.224,0.5 -0.5,0.5z"></path></g><g fill="#472b29"><path d="M64.5,50.75h-12c-0.138,0 -0.25,-0.112 -0.25,-0.25v-7c0,-0.138 0.112,-0.25 0.25,-0.25h0.844c0.138,0 0.25,0.112 0.25,0.25c0,0.138 -0.112,0.25 -0.25,0.25h-0.594v6.5h11.75c0.138,0 0.25,0.112 0.25,0.25c0,0.138 -0.112,0.25 -0.25,0.25z"></path></g><g fill="#472b29"><path d="M67.5,50.75h-1.406c-0.138,0 -0.25,-0.112 -0.25,-0.25c0,-0.138 0.112,-0.25 0.25,-0.25h1.156v-6.5h-9.625c-0.138,0 -0.25,-0.112 -0.25,-0.25c0,-0.138 0.112,-0.25 0.25,-0.25h9.875c0.138,0 0.25,0.112 0.25,0.25v7c0,0.138 -0.112,0.25 -0.25,0.25z"></path></g><g fill="#472b29"><path d="M56.5,43.75h-2c-0.138,0 -0.25,-0.112 -0.25,-0.25c0,-0.138 0.112,-0.25 0.25,-0.25h2c0.138,0 0.25,0.112 0.25,0.25c0,0.138 -0.112,0.25 -0.25,0.25z"></path></g></g></g></svg>