<svg xmlns="http://www.w3.org/2000/svg" viewBox="0 0 1900 1350" width="1900" height="1350"><path fill="none" d="M0 0h1900v1350H0z"/><g transform="translate(246.0 473.0) rotate(0.0 170.5 218.5) scale(0.9963244102402282 0.9963838335012973)"><svg width="342.258" height="438.586" viewBox="0 0 342.258 438.586"><rect fill="#E5CFF7" height="438.586" rx="50" width="342.258"/><g fill="#fff"><circle cx="66.187" cy="108.337" r="15.393"/><circle cx="66.187" cy="168.862" r="15.393"/><circle cx="66.187" cy="229.387" r="15.393"/><circle cx="66.187" cy="289.911" r="15.393"/><circle cx="66.187" cy="350.436" r="15.393"/><path d="M291.464 115.837H109.935c-4.142 0-7.5-3.357-7.5-7.5s3.358-7.5 7.5-7.5h181.529c4.142 0 7.5 3.357 7.5 7.5s-3.358 7.5-7.5 7.5zm0 60.525H109.935c-4.142 0-7.5-3.357-7.5-7.5s3.358-7.5 7.5-7.5h181.529c4.142 0 7.5 3.357 7.5 7.5s-3.358 7.5-7.5 7.5zm0 60.525H109.935c-4.142 0-7.5-3.357-7.5-7.5s3.358-7.5 7.5-7.5h181.529c4.142 0 7.5 3.357 7.5 7.5s-3.358 7.5-7.5 7.5zm0 60.524H109.935c-4.142 0-7.5-3.357-7.5-7.5s3.358-7.5 7.5-7.5h181.529c4.142 0 7.5 3.357 7.5 7.5s-3.358 7.5-7.5 7.5zm0 60.525H109.935c-4.142 0-7.5-3.357-7.5-7.5s3.358-7.5 7.5-7.5h181.529c4.142 0 7.5 3.357 7.5 7.5s-3.358 7.5-7.5 7.5z"/></g></svg></g><g transform="translate(886.0 170.0) rotate(0.0 390.0 270.5) scale(0.9999641038526822 0.9984534122745176)"><svg width="780.028" height="541.838" viewBox="0 0 780.028 541.838"><g fill="#E5CFF7"><path d="M722.528 541.839H57.5c-31.706 0-57.5-25.794-57.5-57.5V57.5C0 25.794 25.794 0 57.5 0h665.028c31.706 0 57.5 25.794 57.5 57.5v426.839c0 31.706-25.794 57.5-57.5 57.5zM57.5 15C34.065 15 15 34.065 15 57.5v426.839c0 23.435 19.065 42.5 42.5 42.5h665.028c23.435 0 42.5-19.065 42.5-42.5V57.5c0-23.435-19.065-42.5-42.5-42.5z"/><circle cx="571.722" cy="70.442" r="22.983"/><circle cx="638.259" cy="70.442" r="22.983"/><circle cx="704.796" cy="70.442" r="22.983"/></g></svg></g><g transform="translate(453.0 312.0) rotate(0.0 470.5 395.5) scale(0.9991961833041857 0.9997788099977881)"><svg width="941.757" height="791.175" viewBox="0 0 941.757 791.175"><rect fill="#5B0888" height="623.398" rx="50" width="926.757" x="7.5" y="7.5"/><path d="M884.257 638.398H57.5c-31.705 0-57.5-25.794-57.5-57.5V57.5C0 25.794 25.795 0 57.5 0h826.757c31.706 0 57.5 25.794 57.5 57.5v523.397c0 31.706-25.794 57.5-57.5 57.5zM57.5 15C34.065 15 15 34.065 15 57.5v523.397c0 23.435 19.065 42.5 42.5 42.5h826.757c23.435 0 42.5-19.065 42.5-42.5V57.5c0-23.435-19.065-42.5-42.5-42.5z" fill="#713ABE"/><path d="M383.774 630.898h174.208v101.931H383.774z" fill="#948781"/><path d="M557.983 740.328H383.775a7.5 7.5 0 0 1-7.5-7.5V630.897a7.5 7.5 0 0 1 7.5-7.5h174.208a7.5 7.5 0 0 1 7.5 7.5v101.931a7.5 7.5 0 0 1-7.5 7.5zm-166.708-15h159.208v-86.931H391.275z" fill="#713ABE"/><rect fill="#948781" height="50.847" rx="25.423" width="278.224" x="331.766" y="732.828"/><path d="M584.567 791.175H357.19c-18.154 0-32.923-14.77-32.923-32.923s14.769-32.924 32.923-32.924h227.377c18.154 0 32.924 14.77 32.924 32.924s-14.77 32.923-32.924 32.923zM357.19 740.328c-9.883 0-17.923 8.041-17.923 17.924s8.04 17.923 17.923 17.923h227.377c9.883 0 17.924-8.04 17.924-17.923s-8.041-17.924-17.924-17.924z" fill="#713ABE"/><circle cx="77.981" cy="77.981" fill="#FF4600" r="21.535"/><circle cx="143.641" cy="77.981" fill="#F7EFFF" r="21.535"/><circle cx="209.301" cy="77.981" fill="#42C5FF" r="21.535"/></svg></g><g transform="translate(931.0 665.0) rotate(0.0 191.0 46.0) scale(1.005231413744829 0.9985672730430252)"><svg width="380.012" height="92.132" viewBox="0 0 380.012 92.132"><rect fill="#FFF" height="77.132" rx="38.566" width="365.012" x="7.5" y="7.5"/><path d="M333.946 92.131H46.066C20.665 92.131 0 71.466 0 46.066S20.665 0 46.066 0h287.88c25.401 0 46.066 20.665 46.066 46.066s-20.665 46.065-46.066 46.065zM46.066 15C28.936 15 15 28.936 15 46.065S28.936 77.13 46.066 77.13h287.88c17.13 0 31.066-13.936 31.066-31.065S351.076 15 333.946 15z" fill="#713ABE"/><path d="M253.977 46.066H51.883" fill="#FFF"/><g fill="#713ABE"><path d="M253.979 53.56c-.49 0-.98-.05-1.47-.141a7.592 7.592 0 0 1-2.69-1.119 6.96 6.96 0 0 1-1.14-.931 7.543 7.543 0 0 1-2.2-5.3c0-.49.05-.99.15-1.47a7.528 7.528 0 0 1 1.11-2.7c.28-.41.59-.79.94-1.14.34-.341.72-.66 1.13-.931.41-.27.85-.5 1.3-.689.45-.19.92-.33 1.4-.431a7.641 7.641 0 0 1 2.93 0c.48.101.95.24 1.41.431.45.189.88.42 1.29.689a7.35 7.35 0 0 1 2.07 2.071c.27.411.51.84.69 1.3.19.45.34.92.43 1.4.1.479.15.979.15 1.47 0 1.97-.8 3.9-2.2 5.3-.34.34-.73.66-1.14.931-.41.27-.84.5-1.29.689-.46.19-.93.33-1.41.43-.48.091-.97.141-1.46.141zm-47.92-7.49c0-4.15 3.36-7.5 7.5-7.5 4.14 0 7.5 3.35 7.5 7.5 0 4.14-3.36 7.5-7.5 7.5-4.14 0-7.5-3.36-7.5-7.5zm-40.42 0c0-4.15 3.36-7.5 7.5-7.5 4.14 0 7.5 3.35 7.5 7.5 0 4.14-3.36 7.5-7.5 7.5-4.14 0-7.5-3.36-7.5-7.5zm-40.42 0c0-4.15 3.36-7.5 7.5-7.5 4.14 0 7.5 3.35 7.5 7.5 0 4.14-3.36 7.5-7.5 7.5-4.14 0-7.5-3.36-7.5-7.5zm-40.42 0c0-4.15 3.36-7.5 7.5-7.5 4.15 0 7.5 3.35 7.5 7.5 0 4.14-3.35 7.5-7.5 7.5-4.14 0-7.5-3.36-7.5-7.5zm-32.92 7.49c-.48 0-.98-.05-1.46-.141-.48-.1-.95-.239-1.4-.43-.46-.189-.89-.42-1.3-.689a7.918 7.918 0 0 1-1.14-.931c-.34-.35-.66-.729-.93-1.14a7.729 7.729 0 0 1-1.12-2.7c-.1-.479-.14-.979-.14-1.46a7.251 7.251 0 0 1 .57-2.87c.19-.46.42-.89.69-1.3s.59-.79.93-1.14c.35-.341.73-.66 1.14-.931.41-.27.84-.5 1.3-.689.45-.19.92-.33 1.4-.431a7.641 7.641 0 0 1 2.93 0c.48.101.95.24 1.4.431.46.189.89.42 1.3.689.41.271.79.59 1.14.931.34.35.66.729.93 1.14a7.729 7.729 0 0 1 1.12 2.7c.09.479.14.979.14 1.47 0 1.97-.8 3.9-2.19 5.3-.35.34-.73.66-1.14.931-.41.27-.85.5-1.3.689-.45.19-.92.33-1.4.43-.48.091-.98.141-1.47.141z"/></g></svg></g><g transform="translate(392.0 1044.0) rotate(0.0 214.5 30.5) scale(1.000811847372694 1.0099003344260125)"><svg width="428.652" height="60.402" viewBox="0 0 428.652 60.402"><path d="M406.152 20.302H22.5c-8.284 0-15 6.716-15 15v17.6h413.652v-17.6c0-8.285-6.715-15-15-15z" fill="#42C5FF"/><path d="M421.153 60.402H7.5a7.5 7.5 0 0 1-7.5-7.5v-17.6c0-12.407 10.094-22.5 22.5-22.5h383.653c12.406 0 22.5 10.093 22.5 22.5v17.6a7.5 7.5 0 0 1-7.5 7.5zM15 45.402h398.653v-10.1c0-4.135-3.365-7.5-7.5-7.5H22.5c-4.135 0-7.5 3.365-7.5 7.5z" fill="#713ABE"/><path d="M50.324 7.5H32.37l-4.896 12.802H55.22z" fill="#FFF"/><path d="M55.22 27.802H27.474a7.5 7.5 0 0 1-7.005-10.179l4.896-12.802A7.5 7.5 0 0 1 32.37 0h17.953a7.5 7.5 0 0 1 7.005 4.821l4.896 12.802a7.497 7.497 0 0 1-7.004 10.179z" fill="#713ABE"/><path d="M100.648 7.5H82.694l-4.896 12.802h27.746z" fill="#FFF"/><path d="M105.544 27.802H77.798a7.5 7.5 0 0 1-7.005-10.179l4.896-12.802A7.5 7.5 0 0 1 82.695 0h17.953a7.5 7.5 0 0 1 7.005 4.821l4.896 12.802a7.497 7.497 0 0 1-7.005 10.179z" fill="#713ABE"/><path d="M150.972 7.5h-17.953l-4.897 12.802h27.747z" fill="#FFF"/><path d="M155.869 27.802h-27.746a7.5 7.5 0 0 1-7.005-10.179l4.896-12.802A7.498 7.498 0 0 1 133.019 0h17.953a7.5 7.5 0 0 1 7.005 4.821l4.896 12.802a7.497 7.497 0 0 1-7.004 10.179z" fill="#713ABE"/><path d="M201.296 7.5h-17.953l-4.897 12.802h27.747z" fill="#FFF"/><path d="M206.193 27.802h-27.746a7.5 7.5 0 0 1-7.005-10.179l4.896-12.802A7.498 7.498 0 0 1 183.343 0h17.954a7.5 7.5 0 0 1 7.005 4.821l4.896 12.802a7.497 7.497 0 0 1-7.005 10.179z" fill="#713ABE"/><path d="M301.945 7.5h-17.954l-4.896 12.802h27.746z" fill="#FFF"/><path d="M306.841 27.802h-27.746a7.5 7.5 0 0 1-7.005-10.179l4.896-12.802A7.5 7.5 0 0 1 283.991 0h17.953a7.5 7.5 0 0 1 7.005 4.821l4.896 12.802a7.497 7.497 0 0 1-7.004 10.179z" fill="#713ABE"/><path d="M352.269 7.5h-17.954l-4.896 12.802h27.746z" fill="#FFF"/><path d="M357.165 27.802h-27.746a7.5 7.5 0 0 1-7.005-10.179l4.896-12.802A7.5 7.5 0 0 1 334.315 0h17.953a7.5 7.5 0 0 1 7.005 4.821l4.896 12.802a7.497 7.497 0 0 1-7.004 10.179z" fill="#713ABE"/><path d="M402.593 7.5h-17.954l-4.896 12.802h27.746z" fill="#FFF"/><path d="M407.489 27.802h-27.746a7.5 7.5 0 0 1-7.005-10.179l4.896-12.802A7.5 7.5 0 0 1 384.639 0h17.954a7.5 7.5 0 0 1 7.005 4.821l4.896 12.802a7.497 7.497 0 0 1-7.005 10.179z" fill="#713ABE"/></svg></g><g transform="translate(174.0 1091.0) rotate(0.0 776.5 46.5) scale(1.0006166066275226 0.9869677802776246)"><svg width="1552.043" height="94.228" viewBox="0 0 1552.043 94.228"><rect x="7.5" y="7.5" width="1537.043" height="79.228" rx="39.614" ry="39.614" style="fill:#e5cff7"/><path d="M1504.93 94.228H47.114C21.135 94.228 0 73.093 0 47.114S21.135 0 47.114 0H1504.93c25.979 0 47.114 21.136 47.114 47.114s-21.135 47.113-47.114 47.113ZM47.114 15C29.406 15 15 29.406 15 47.114s14.406 32.113 32.114 32.113H1504.93c17.708 0 32.114-14.406 32.114-32.113S1522.638 15 1504.93 15H47.114Z" style="fill:#713abe"/></svg></g><g transform="translate(931.0 531.0) rotate(0.0 190.5 46.0) scale(1.0025999178973295 0.9985672730430252)"><svg width="380.012" height="92.132" viewBox="0 0 380.012 92.132"><rect fill="#FFF" height="77.132" rx="38.566" width="365.012" x="7.5" y="7.5"/><g fill="#713ABE"><path d="M333.946 92.131H46.066C20.665 92.131 0 71.466 0 46.066S20.665 0 46.066 0h287.88c25.401 0 46.066 20.665 46.066 46.066s-20.665 46.065-46.066 46.065zM46.066 15C28.936 15 15 28.937 15 46.066s13.936 31.065 31.066 31.065h287.88c17.13 0 31.066-13.936 31.066-31.065S351.076 15 333.946 15z"/><path d="M164.312 53.566H51.883c-4.142 0-7.5-3.357-7.5-7.5s3.358-7.5 7.5-7.5h112.429c4.142 0 7.5 3.357 7.5 7.5s-3.358 7.5-7.5 7.5zm89.665 0h-63.985c-4.142 0-7.5-3.357-7.5-7.5s3.358-7.5 7.5-7.5h63.985c4.142 0 7.5 3.357 7.5 7.5s-3.358 7.5-7.5 7.5z"/></g></svg></g><g transform="translate(1264.0 545.0) rotate(0.0 230.0 275.0) scale(1.0056755078661315 1.0067967936267932)"><svg width="457.404" height="546.287" viewBox="0 0 457.404 546.287"><path d="m228.703 7.5-.001.001-.001-.001C160.21 62.187 134.613 89.671 7.5 108.724l.876 91.329c6.307 100.824 30.023 259.109 220.326 338.735 190.303-79.626 214.019-237.911 220.326-338.735l.876-91.329C322.791 89.671 297.194 62.187 228.703 7.5z" fill="#fff"/><path d="M228.702 546.288a7.49 7.49 0 0 1-2.895-.581c-45.485-19.031-84.544-43.868-116.092-73.821-27.497-26.105-50.008-56.793-66.907-91.21C11.677 317.273 4.054 251.093.89 200.52a7.483 7.483 0 0 1-.014-.396L0 108.796a7.5 7.5 0 0 1 6.388-7.489c115.478-17.309 144.636-40.829 202.726-87.686 4.765-3.843 9.713-7.834 14.908-11.982a7.498 7.498 0 0 1 9.36.001c5.194 4.147 10.143 8.139 14.907 11.981 58.09 46.857 87.247 70.377 202.726 87.686a7.5 7.5 0 0 1 6.388 7.489l-.875 91.329c0 .132-.006.264-.014.396-3.164 50.573-10.787 116.754-41.918 180.155-16.899 34.417-39.41 65.104-66.906 91.21-31.548 29.952-70.607 54.79-116.092 73.821a7.49 7.49 0 0 1-2.895.581zM15.874 199.783c7.22 115.037 38.059 256.329 212.828 330.863C403.471 456.112 434.31 314.82 441.531 199.783l.811-84.63C328.113 97.277 296.11 71.465 238.873 25.297c-3.295-2.658-6.678-5.388-10.17-8.19-3.492 2.803-6.875 5.532-10.171 8.19-57.237 46.169-89.24 71.98-203.469 89.856l.812 84.63z" fill="#713ABE"/><path d="M228.703 62.864c-54.216 43.289-74.479 65.045-175.099 80.127l.693 72.294c4.993 79.811 23.766 205.107 174.406 268.137 150.64-63.031 169.414-188.327 174.406-268.137l.693-72.294c-100.621-15.082-120.883-36.838-175.099-80.127z" fill="#F7EFFF"/><path d="M228.702 490.922a7.49 7.49 0 0 1-2.895-.581c-67.766-28.354-116.773-72.561-145.659-131.389-24.765-50.437-30.825-103.021-33.338-143.199a7.483 7.483 0 0 1-.014-.396l-.693-72.295a7.499 7.499 0 0 1 6.388-7.489c90.99-13.638 113.961-32.166 159.723-69.08 3.774-3.044 7.693-6.206 11.808-9.491a7.5 7.5 0 0 1 9.361 0c4.114 3.285 8.034 6.447 11.808 9.491 45.763 36.914 68.733 55.442 159.723 69.08a7.5 7.5 0 0 1 6.388 7.489l-.693 72.295c0 .132-.006.264-.014.396-2.513 40.177-8.574 92.763-33.338 143.198-28.886 58.828-77.893 103.034-145.659 131.389a7.49 7.49 0 0 1-2.895.581zM61.793 215.015c5.685 90.47 29.908 201.538 166.908 260.263 137-58.725 161.225-169.793 166.91-260.263l.628-65.601c-89.752-14.205-115.171-34.709-160.467-71.246-2.299-1.854-4.652-3.752-7.071-5.695-2.418 1.943-4.771 3.841-7.071 5.695-45.296 36.537-70.714 57.041-160.467 71.246l.629 65.601z" fill="#F7EFFF"/><g fill="#713ABE"><ellipse cx="228.702" cy="239.382" rx="52.527" ry="52.494"/><path d="M228.702 299.376c-33.099 0-60.027-26.913-60.027-59.993s26.928-59.994 60.027-59.994 60.027 26.913 60.027 59.994-26.928 59.993-60.027 59.993zm0-104.987c-24.828 0-45.027 20.185-45.027 44.994s20.199 44.993 45.027 44.993 45.027-20.184 45.027-44.993-20.199-44.994-45.027-44.994z"/><path d="M249.663 277.936h-41.924l6.377 81.463h29.169l6.377-81.463z"/><path d="M243.286 366.899h-29.169a7.5 7.5 0 0 1-7.477-6.915l-6.377-81.464a7.499 7.499 0 0 1 7.477-8.085h41.923a7.498 7.498 0 0 1 7.477 8.085l-6.377 81.464a7.5 7.5 0 0 1-7.477 6.915zm-22.233-15h15.297l5.203-66.464h-25.704z"/></g></svg></g><g transform="translate(533.0 461.0) rotate(0.0 176.5 176.5) scale(0.9978234446109054 0.9978234446109054)"><svg width="353.77" height="353.77" viewBox="0 0 353.77 353.77"><circle cx="176.885" cy="176.885" fill="#fff" r="169.364"/><path d="M280.794 211.793c15.839-15.9 18.365-42.706-2.416-60.256-22.216-18.723-30.119-27.008-37.29-50.743-13.485-44.49-50.079-39.354-50.079-39.354-21.921-19.478-75.799-12.734-86.68 38.054-5.059 23.76-9.263 58.668-32.37 85.373-23.162 26.748 7.919 51.255 7.919 51.255-15.645 26.42 39.769 77.889 117.161 71.917 61.991-4.768 80.767-28.561 87.332-40.446 14.237-25.857 7.032-45.834-3.578-55.8z" fill="#713ABE"/><path d="M184.704 316.017c-51.146 0-92.501-23.608-108.233-48.892-6.376-10.248-8.273-20.362-5.581-29.108-5.275-5.387-13.602-15.814-14.85-28.949-.981-10.329 2.467-20.122 10.249-29.108 18.815-21.745 24.306-49.71 28.719-72.18.678-3.454 1.319-6.717 1.985-9.846 5.34-24.924 21.286-43.436 43.752-50.797 18.64-6.107 39.338-3.406 52.709 6.628 4.237-.105 11.789.338 20.292 3.694 11.423 4.51 26.685 15.312 34.519 41.162 6.481 21.452 12.806 28.523 34.946 47.183 10.764 9.09 17 21.322 17.564 34.448.481 11.176-3.117 22.321-10.012 31.471 9.869 13.08 14.158 34.101.178 59.49-9.773 17.694-33.893 39.735-93.326 44.307-4.365.337-8.672.499-12.911.499zM161.138 58.894c-5.212 0-10.586.813-15.721 2.496-10.144 3.324-28.017 12.898-33.754 39.676-.639 3.003-1.269 6.208-1.935 9.603-4.504 22.935-10.672 54.346-32.096 79.107-5.067 5.852-7.244 11.697-6.657 17.873 1.189 12.517 13.425 22.488 13.549 22.585a7.5 7.5 0 0 1 1.81 9.711c-3.864 6.524.143 14.864 2.875 19.255 13.181 21.185 50.34 41.805 95.688 41.808 3.804 0 7.657-.145 11.567-.446 41.767-3.213 69.895-15.867 81.344-36.595 11.957-21.715 6.731-38.368-2.147-46.708a7.5 7.5 0 0 1-.178-10.759c6.952-6.979 10.709-16.312 10.309-25.605-.388-9.017-4.624-17.187-12.25-23.628-22.611-19.056-31.888-28.677-39.631-54.304-4.893-16.142-13.53-26.761-25.671-31.554-8.751-3.456-16.115-2.552-16.186-2.542a7.501 7.501 0 0 1-6.024-1.821c-5.98-5.313-15.152-8.153-24.89-8.153z" fill="#713ABE"/><path d="M33.064 268.354s63.265-41.446 142.186-42.16c62.217-.563 107.668 14.725 151.16 42.548 0 0-28.468 31.692-55.588 47.983s-74.708 34.43-107.785 30.786c-87.839-9.676-129.973-79.158-129.973-79.158z" fill="#F7EFFF"/><path d="M317.154 276.861a7.464 7.464 0 0 1-4.177-1.276c-40.777-27.405-88.402-41.89-137.728-41.89s-96.945 14.484-137.72 41.886a7.5 7.5 0 0 1-10.408-2.042 7.5 7.5 0 0 1 2.042-10.408c43.258-29.07 93.774-44.436 146.087-44.436s102.835 15.367 146.095 44.441a7.499 7.499 0 0 1-4.191 13.725z" fill="#713ABE"/><path d="M211.885 221.202c-4.207-5.833-8.34-14.182-8.177-18.567-.352 7.034 1.715-43.344 1.715-43.344l-57.771-2.317s-1.378 35.268-1.888 47.034c-.421 10.292-10.818 22.728-10.818 22.728-10.137 18.162 44.895 56.712 44.895 56.712s43.238-46.762 32.045-62.248z" fill="#A86F35"/><path d="M179.837 290.949a7.481 7.481 0 0 1-4.3-1.357c-.581-.407-14.368-10.102-27.121-22.259-19.641-18.724-26.189-33.198-20.02-44.25.228-.409.494-.796.795-1.155 3.384-4.073 8.85-12.632 9.079-18.225.504-11.634 1.874-46.668 1.888-47.021a7.502 7.502 0 0 1 7.795-7.201l57.771 2.317a7.5 7.5 0 0 1 7.193 7.802c-.622 15.164-1.528 37.473-1.715 42.707.009.201.009.403.002.608.015 1.849 2.657 8.204 6.765 13.901 6.884 9.533 3.154 24.017-11.737 45.58-9.603 13.905-20.428 25.653-20.884 26.146a7.493 7.493 0 0 1-5.51 2.408zm-38.498-60.188c-.818 2.639 1.808 10.825 17.427 25.715 7.245 6.907 14.99 13.065 19.991 16.863 3.921-4.576 9.84-11.793 15.21-19.582 12.893-18.701 12.917-26.669 11.839-28.161l-.005-.007c-.948-1.315-8.76-12.392-9.536-21.327a10.09 10.09 0 0 1-.082-1.688l.051-1.433c.045-1.208.111-2.934.192-5.004.162-4.129.383-9.634.606-15.14l.59-14.511-42.771-1.715c-.435 11.043-1.235 31.258-1.595 39.564-.459 11.211-9.259 23.084-11.917 26.427z" fill="#713ABE"/><path d="M236.65 117.433c-7.071-34.613-32.553-59.94-62.156-59.161-29.603.78-53.691 27.41-58.936 62.334-10.544.388-18.843 9.181-18.559 19.761.278 10.629 9.156 19.038 19.785 18.76l.749-.053c8.32 32.198 32.809 55.221 61.072 54.468 28.263-.752 51.462-25.07 58.09-57.64.25-.018.493.013.743-.004 10.629-.278 19.038-9.156 18.76-19.785-.242-10.525-8.98-18.867-19.548-18.68z" fill="#A86F35"/><g fill="#713ABE"><path d="M177.298 221.06c-28.864.002-55.042-22.078-65.492-54.795-5.205-.872-10.035-3.269-13.955-6.984-5.197-4.926-8.162-11.573-8.349-18.717-.335-12.467 8.053-23.271 19.608-26.494 3.406-16.417 10.861-31.368 21.299-42.551 12.084-12.949 27.671-20.316 43.888-20.743 16.224-.423 32.176 6.11 44.931 18.406 11.018 10.622 19.252 25.158 23.516 41.373 11.731 2.586 20.667 12.916 20.953 25.386.187 7.119-2.422 13.913-7.344 19.106-3.715 3.919-8.408 6.568-13.555 7.715-8.876 33.813-34.569 57.494-63.992 58.278a58.31 58.31 0 0 1-1.507.02zm-59.76-69.485a7.499 7.499 0 0 1 7.257 5.624c7.596 29.399 29.646 49.517 53.61 48.847 23.935-.637 44.883-21.871 50.94-51.638a7.5 7.5 0 0 1 6.823-5.986c.349-.024.694-.028 1.039-.02h.035a11.68 11.68 0 0 0 8.223-3.673 11.709 11.709 0 0 0 3.235-8.418c-.147-6.397-5.48-11.486-11.917-11.377a7.473 7.473 0 0 1-7.481-5.998c-6.429-31.469-29.394-53.848-54.611-53.164-25.197.664-46.947 24.194-51.717 55.95a7.5 7.5 0 0 1-7.141 6.381c-6.424.236-11.51 5.648-11.337 12.064a11.687 11.687 0 0 0 3.673 8.229c2.252 2.136 5.186 3.3 8.273 3.238l.564-.04c.178-.013.355-.019.531-.019zm119.368-3.157h-.009z"/><path d="M115.558 120.606s67.68-24.537 71.212-58.838c1.104-10.601-70.619-13.757-71.212 58.838z"/><path d="M115.384 124.693a4.26 4.26 0 0 1-2.136-.718c-1.088-.782-1.725-2.002-1.703-3.336.118-15.677 3.471-29.16 9.96-40.065 5.486-9.251 13.142-16.492 22.638-21.469 16.29-8.566 35.421-8.75 43.125-3.56 3.46 2.372 3.739 5.229 3.595 6.745-3.75 36.401-71.017 61.189-73.87 62.211-.561.127-1.066.211-1.608.191zm58.515-64.466c-5.164-.262-12.085.439-19.614 3.192-12.101 4.447-32.055 16.902-34.442 51.15 6.329-2.658 17.146-7.516 28.028-14.049 14.743-8.862 32.642-22.668 34.794-38.383-1.179-.843-4.339-1.692-8.766-1.91z"/><path d="M179.728 77.405s39.497 5.482 56.923 40.029c0 0 1.118-60.795-49.886-55.616"/><path d="M236.433 121.465c-1.425-.083-2.757-.896-3.43-2.219-16.195-32.163-53.499-37.761-53.84-37.804a4.098 4.098 0 0 1-3.473-4.601 4.098 4.098 0 0 1 4.601-3.473c.438.056 10.649 1.506 23.114 7.403 10.926 5.155 20.185 12.128 27.376 20.569-1.878-8.952-5.798-19.748-13.771-27.101-7.444-6.84-17.481-9.654-29.818-8.406-2.205.214-4.23-1.381-4.437-3.635s1.381-4.23 3.635-4.437c14.743-1.486 26.916 2.046 36.129 10.547 18.565 17.07 18.203 47.863 18.181 49.197-.041 1.876-1.336 3.493-3.171 3.902-.353.054-.707.108-1.096.058z"/><path d="M177.003 353.763c-8.198 0-16.484-.571-24.83-1.749-46.779-6.601-88.187-31.022-116.597-68.768-28.41-37.745-40.421-84.294-33.82-131.072C15.382 55.607 105.033-11.869 201.596 1.756c96.566 13.626 164.043 103.274 150.417 199.84-12.448 88.22-88.354 152.166-175.011 152.166zm-.226-338.754c-79.314-.001-148.775 58.517-160.168 139.26-6.041 42.811 4.951 85.413 30.952 119.956 26.001 34.544 63.897 56.895 106.708 62.936 88.373 12.466 170.421-49.284 182.892-137.66 12.47-88.371-49.292-170.414-137.66-182.892a162.638 162.638 0 0 0-22.724-1.601z"/></g></svg></g><g transform="translate(1151.0 1025.0) rotate(0.0 81.0 40.0) scale(1.0013598714303376 1.005239812522775)"><svg width="161.78" height="79.583" viewBox="0 0 161.78 79.583"><path d="M89.697 7.5H72.083C36.415 7.5 7.5 36.415 7.5 72.083h146.78c0-35.668-28.915-64.583-64.583-64.583z" fill="#42C5FF"/><path d="M154.28 79.583H7.5a7.5 7.5 0 0 1-7.5-7.5C0 32.336 32.336 0 72.083 0h17.614c39.747 0 72.083 32.336 72.083 72.083a7.5 7.5 0 0 1-7.5 7.5zm-138.79-15h130.799C142.606 36.639 118.631 15 89.697 15H72.083C43.149 15 19.174 36.639 15.49 64.583z" fill="#713ABE"/></svg></g></svg>